<svg version="1.1" baseProfile="tiny" xmlns="http://www.w3.org/2000/svg" width="500" height="500" ><rect xmlns="http://www.w3.org/2000/svg" shape-rendering="optimizeSpeed" width="500" height="500" fill="#fff" x="0" y="0"/><rect shape-rendering="optimizeSpeed" fill="#000" x="5" y="5"  width="16.996551724137934" height="16.996551724137934"></rect><rect shape-rendering="optimizeSpeed" fill="#000" x="21.896551724137932" y="5"  width="16.996551724137934" height="16.996551724137934"></rect><rect shape-rendering="optimizeSpeed" fill="#000" x="38.793103448275865" y="5"  width="16.996551724137934" height="16.996551724137934"></rect><rect shape-rendering="optimizeSpeed" fill="#000" x="55.689655172413794" y="5"  width="16.996551724137934" height="16.996551724137934"></rect><rect shape-rendering="optimizeSpeed" fill="#000" x="72.58620689655173" y="5"  width="16.996551724137934" height="16.996551724137934"></rect><rect shape-rendering="optimizeSpeed" fill="#000" x="89.48275862068967" y="5"  width="16.996551724137934" height="16.996551724137934"></rect><rect shape-rendering="optimizeSpeed" fill="#000" x="106.37931034482759" y="5"  width="16.996551724137934" height="16.996551724137934"></rect><rect shape-rendering="optimizeSpeed" fill="#000" x="140.17241379310346" y="5"  width="16.996551724137934" height="16.996551724137934"></rect><rect shape-rendering="optimizeSpeed" fill="#000" x="157.0689655172414" y="5"  width="16.996551724137934" height="16.996551724137934"></rect><rect shape-rendering="optimizeSpeed" fill="#000" x="173.96551724137933" y="5"  width="16.996551724137934" height="16.996551724137934"></rect><rect shape-rendering="optimizeSpeed" fill="#000" x="207.75862068965517" y="5"  width="16.996551724137934" height="16.996551724137934"></rect><rect shape-rendering="optimizeSpeed" fill="#000" x="275.3448275862069" y="5"  width="16.996551724137934" height="16.996551724137934"></rect><rect shape-rendering="optimizeSpeed" fill="#000" x="292.2413793103448" y="5"  width="16.996551724137934" height="16.996551724137934"></rect><rect shape-rendering="optimizeSpeed" fill="#000" x="326.0344827586207" y="5"  width="16.996551724137934" height="16.996551724137934"></rect><rect shape-rendering="optimizeSpeed" fill="#000" x="342.93103448275866" y="5"  width="16.996551724137934" height="16.996551724137934"></rect><rect shape-rendering="optimizeSpeed" fill="#000" x="376.72413793103453" y="5"  width="16.996551724137934" height="16.996551724137934"></rect><rect shape-rendering="optimizeSpeed" fill="#000" x="393.62068965517244" y="5"  width="16.996551724137934" height="16.996551724137934"></rect><rect shape-rendering="optimizeSpeed" fill="#000" x="410.51724137931035" y="5"  width="16.996551724137934" height="16.996551724137934"></rect><rect shape-rendering="optimizeSpeed" fill="#000" x="427.4137931034483" y="5"  width="16.996551724137934" height="16.996551724137934"></rect><rect shape-rendering="optimizeSpeed" fill="#000" x="444.3103448275862" y="5"  width="16.996551724137934" height="16.996551724137934"></rect><rect shape-rendering="optimizeSpeed" fill="#000" x="461.2068965517242" y="5"  width="16.996551724137934" height="16.996551724137934"></rect><rect shape-rendering="optimizeSpeed" fill="#000" x="478.1034482758621" y="5"  width="16.996551724137934" height="16.996551724137934"></rect><rect shape-rendering="optimizeSpeed" fill="#000" x="5" y="21.896551724137932"  width="16.996551724137934" height="16.996551724137934"></rect><rect shape-rendering="optimizeSpeed" fill="#000" x="106.37931034482759" y="21.896551724137932"  width="16.996551724137934" height="16.996551724137934"></rect><rect shape-rendering="optimizeSpeed" fill="#000" x="140.17241379310346" y="21.896551724137932"  width="16.996551724137934" height="16.996551724137934"></rect><rect shape-rendering="optimizeSpeed" fill="#000" x="157.0689655172414" y="21.896551724137932"  width="16.996551724137934" height="16.996551724137934"></rect><rect shape-rendering="optimizeSpeed" fill="#000" x="190.86206896551727" y="21.896551724137932"  width="16.996551724137934" height="16.996551724137934"></rect><rect shape-rendering="optimizeSpeed" fill="#000" x="241.55172413793105" y="21.896551724137932"  width="16.996551724137934" height="16.996551724137934"></rect><rect shape-rendering="optimizeSpeed" fill="#000" x="258.44827586206895" y="21.896551724137932"  width="16.996551724137934" height="16.996551724137934"></rect><rect shape-rendering="optimizeSpeed" fill="#000" x="292.2413793103448" y="21.896551724137932"  width="16.996551724137934" height="16.996551724137934"></rect><rect shape-rendering="optimizeSpeed" fill="#000" x="342.93103448275866" y="21.896551724137932"  width="16.996551724137934" height="16.996551724137934"></rect><rect shape-rendering="optimizeSpeed" fill="#000" x="376.72413793103453" y="21.896551724137932"  width="16.996551724137934" height="16.996551724137934"></rect><rect shape-rendering="optimizeSpeed" fill="#000" x="478.1034482758621" y="21.896551724137932"  width="16.996551724137934" height="16.996551724137934"></rect><rect shape-rendering="optimizeSpeed" fill="#000" x="5" y="38.793103448275865"  width="16.996551724137934" height="16.996551724137934"></rect><rect shape-rendering="optimizeSpeed" fill="#000" x="38.793103448275865" y="38.793103448275865"  width="16.996551724137934" height="16.996551724137934"></rect><rect shape-rendering="optimizeSpeed" fill="#000" x="55.689655172413794" y="38.793103448275865"  width="16.996551724137934" height="16.996551724137934"></rect><rect shape-rendering="optimizeSpeed" fill="#000" x="72.58620689655173" y="38.793103448275865"  width="16.996551724137934" height="16.996551724137934"></rect><rect shape-rendering="optimizeSpeed" fill="#000" x="106.37931034482759" y="38.793103448275865"  width="16.996551724137934" height="16.996551724137934"></rect><rect shape-rendering="optimizeSpeed" fill="#000" x="207.75862068965517" y="38.793103448275865"  width="16.996551724137934" height="16.996551724137934"></rect><rect shape-rendering="optimizeSpeed" fill="#000" x="224.6551724137931" y="38.793103448275865"  width="16.996551724137934" height="16.996551724137934"></rect><rect shape-rendering="optimizeSpeed" fill="#000" x="275.3448275862069" y="38.793103448275865"  width="16.996551724137934" height="16.996551724137934"></rect><rect shape-rendering="optimizeSpeed" fill="#000" x="376.72413793103453" y="38.793103448275865"  width="16.996551724137934" height="16.996551724137934"></rect><rect shape-rendering="optimizeSpeed" fill="#000" x="410.51724137931035" y="38.793103448275865"  width="16.996551724137934" height="16.996551724137934"></rect><rect shape-rendering="optimizeSpeed" fill="#000" x="427.4137931034483" y="38.793103448275865"  width="16.996551724137934" height="16.996551724137934"></rect><rect shape-rendering="optimizeSpeed" fill="#000" x="444.3103448275862" y="38.793103448275865"  width="16.996551724137934" height="16.996551724137934"></rect><rect shape-rendering="optimizeSpeed" fill="#000" x="478.1034482758621" y="38.793103448275865"  width="16.996551724137934" height="16.996551724137934"></rect><rect shape-rendering="optimizeSpeed" fill="#000" x="5" y="55.689655172413794"  width="16.996551724137934" height="16.996551724137934"></rect><rect shape-rendering="optimizeSpeed" fill="#000" x="38.793103448275865" y="55.689655172413794"  width="16.996551724137934" height="16.996551724137934"></rect><rect shape-rendering="optimizeSpeed" fill="#000" x="55.689655172413794" y="55.689655172413794"  width="16.996551724137934" height="16.996551724137934"></rect><rect shape-rendering="optimizeSpeed" fill="#000" x="72.58620689655173" y="55.689655172413794"  width="16.996551724137934" height="16.996551724137934"></rect><rect shape-rendering="optimizeSpeed" fill="#000" x="106.37931034482759" y="55.689655172413794"  width="16.996551724137934" height="16.996551724137934"></rect><rect shape-rendering="optimizeSpeed" fill="#000" x="173.96551724137933" y="55.689655172413794"  width="16.996551724137934" height="16.996551724137934"></rect><rect shape-rendering="optimizeSpeed" fill="#000" x="190.86206896551727" y="55.689655172413794"  width="16.996551724137934" height="16.996551724137934"></rect><rect shape-rendering="optimizeSpeed" fill="#000" x="207.75862068965517" y="55.689655172413794"  width="16.996551724137934" height="16.996551724137934"></rect><rect shape-rendering="optimizeSpeed" fill="#000" x="224.6551724137931" y="55.689655172413794"  width="16.996551724137934" height="16.996551724137934"></rect><rect shape-rendering="optimizeSpeed" fill="#000" x="258.44827586206895" y="55.689655172413794"  width="16.996551724137934" height="16.996551724137934"></rect><rect shape-rendering="optimizeSpeed" fill="#000" x="292.2413793103448" y="55.689655172413794"  width="16.996551724137934" height="16.996551724137934"></rect><rect shape-rendering="optimizeSpeed" fill="#000" x="309.1379310344828" y="55.689655172413794"  width="16.996551724137934" height="16.996551724137934"></rect><rect shape-rendering="optimizeSpeed" fill="#000" x="342.93103448275866" y="55.689655172413794"  width="16.996551724137934" height="16.996551724137934"></rect><rect shape-rendering="optimizeSpeed" fill="#000" x="376.72413793103453" y="55.689655172413794"  width="16.996551724137934" height="16.996551724137934"></rect><rect shape-rendering="optimizeSpeed" fill="#000" x="410.51724137931035" y="55.689655172413794"  width="16.996551724137934" height="16.996551724137934"></rect><rect shape-rendering="optimizeSpeed" fill="#000" x="427.4137931034483" y="55.689655172413794"  width="16.996551724137934" height="16.996551724137934"></rect><rect shape-rendering="optimizeSpeed" fill="#000" x="444.3103448275862" y="55.689655172413794"  width="16.996551724137934" height="16.996551724137934"></rect><rect shape-rendering="optimizeSpeed" fill="#000" x="478.1034482758621" y="55.689655172413794"  width="16.996551724137934" height="16.996551724137934"></rect><rect shape-rendering="optimizeSpeed" fill="#000" x="5" y="72.58620689655173"  width="16.996551724137934" height="16.996551724137934"></rect><rect shape-rendering="optimizeSpeed" fill="#000" x="38.793103448275865" y="72.58620689655173"  width="16.996551724137934" height="16.996551724137934"></rect><rect shape-rendering="optimizeSpeed" fill="#000" x="55.689655172413794" y="72.58620689655173"  width="16.996551724137934" height="16.996551724137934"></rect><rect shape-rendering="optimizeSpeed" fill="#000" x="72.58620689655173" y="72.58620689655173"  width="16.996551724137934" height="16.996551724137934"></rect><rect shape-rendering="optimizeSpeed" fill="#000" x="106.37931034482759" y="72.58620689655173"  width="16.996551724137934" height="16.996551724137934"></rect><rect shape-rendering="optimizeSpeed" fill="#000" x="157.0689655172414" y="72.58620689655173"  width="16.996551724137934" height="16.996551724137934"></rect><rect shape-rendering="optimizeSpeed" fill="#000" x="207.75862068965517" y="72.58620689655173"  width="16.996551724137934" height="16.996551724137934"></rect><rect shape-rendering="optimizeSpeed" fill="#000" x="224.6551724137931" y="72.58620689655173"  width="16.996551724137934" height="16.996551724137934"></rect><rect shape-rendering="optimizeSpeed" fill="#000" x="292.2413793103448" y="72.58620689655173"  width="16.996551724137934" height="16.996551724137934"></rect><rect shape-rendering="optimizeSpeed" fill="#000" x="309.1379310344828" y="72.58620689655173"  width="16.996551724137934" height="16.996551724137934"></rect><rect shape-rendering="optimizeSpeed" fill="#000" x="326.0344827586207" y="72.58620689655173"  width="16.996551724137934" height="16.996551724137934"></rect><rect shape-rendering="optimizeSpeed" fill="#000" x="342.93103448275866" y="72.58620689655173"  width="16.996551724137934" height="16.996551724137934"></rect><rect shape-rendering="optimizeSpeed" fill="#000" x="376.72413793103453" y="72.58620689655173"  width="16.996551724137934" height="16.996551724137934"></rect><rect shape-rendering="optimizeSpeed" fill="#000" x="410.51724137931035" y="72.58620689655173"  width="16.996551724137934" height="16.996551724137934"></rect><rect shape-rendering="optimizeSpeed" fill="#000" x="427.4137931034483" y="72.58620689655173"  width="16.996551724137934" height="16.996551724137934"></rect><rect shape-rendering="optimizeSpeed" fill="#000" x="444.3103448275862" y="72.58620689655173"  width="16.996551724137934" height="16.996551724137934"></rect><rect shape-rendering="optimizeSpeed" fill="#000" x="478.1034482758621" y="72.58620689655173"  width="16.996551724137934" height="16.996551724137934"></rect><rect shape-rendering="optimizeSpeed" fill="#000" x="5" y="89.48275862068967"  width="16.996551724137934" height="16.996551724137934"></rect><rect shape-rendering="optimizeSpeed" fill="#000" x="106.37931034482759" y="89.48275862068967"  width="16.996551724137934" height="16.996551724137934"></rect><rect shape-rendering="optimizeSpeed" fill="#000" x="173.96551724137933" y="89.48275862068967"  width="16.996551724137934" height="16.996551724137934"></rect><rect shape-rendering="optimizeSpeed" fill="#000" x="190.86206896551727" y="89.48275862068967"  width="16.996551724137934" height="16.996551724137934"></rect><rect shape-rendering="optimizeSpeed" fill="#000" x="207.75862068965517" y="89.48275862068967"  width="16.996551724137934" height="16.996551724137934"></rect><rect shape-rendering="optimizeSpeed" fill="#000" x="258.44827586206895" y="89.48275862068967"  width="16.996551724137934" height="16.996551724137934"></rect><rect shape-rendering="optimizeSpeed" fill="#000" x="292.2413793103448" y="89.48275862068967"  width="16.996551724137934" height="16.996551724137934"></rect><rect shape-rendering="optimizeSpeed" fill="#000" x="342.93103448275866" y="89.48275862068967"  width="16.996551724137934" height="16.996551724137934"></rect><rect shape-rendering="optimizeSpeed" fill="#000" x="376.72413793103453" y="89.48275862068967"  width="16.996551724137934" height="16.996551724137934"></rect><rect shape-rendering="optimizeSpeed" fill="#000" x="478.1034482758621" y="89.48275862068967"  width="16.996551724137934" height="16.996551724137934"></rect><rect shape-rendering="optimizeSpeed" fill="#000" x="5" y="106.37931034482759"  width="16.996551724137934" height="16.996551724137934"></rect><rect shape-rendering="optimizeSpeed" fill="#000" x="21.896551724137932" y="106.37931034482759"  width="16.996551724137934" height="16.996551724137934"></rect><rect shape-rendering="optimizeSpeed" fill="#000" x="38.793103448275865" y="106.37931034482759"  width="16.996551724137934" height="16.996551724137934"></rect><rect shape-rendering="optimizeSpeed" fill="#000" x="55.689655172413794" y="106.37931034482759"  width="16.996551724137934" height="16.996551724137934"></rect><rect shape-rendering="optimizeSpeed" fill="#000" x="72.58620689655173" y="106.37931034482759"  width="16.996551724137934" height="16.996551724137934"></rect><rect shape-rendering="optimizeSpeed" fill="#000" x="89.48275862068967" y="106.37931034482759"  width="16.996551724137934" height="16.996551724137934"></rect><rect shape-rendering="optimizeSpeed" fill="#000" x="106.37931034482759" y="106.37931034482759"  width="16.996551724137934" height="16.996551724137934"></rect><rect shape-rendering="optimizeSpeed" fill="#000" x="140.17241379310346" y="106.37931034482759"  width="16.996551724137934" height="16.996551724137934"></rect><rect shape-rendering="optimizeSpeed" fill="#000" x="173.96551724137933" y="106.37931034482759"  width="16.996551724137934" height="16.996551724137934"></rect><rect shape-rendering="optimizeSpeed" fill="#000" x="207.75862068965517" y="106.37931034482759"  width="16.996551724137934" height="16.996551724137934"></rect><rect shape-rendering="optimizeSpeed" fill="#000" x="241.55172413793105" y="106.37931034482759"  width="16.996551724137934" height="16.996551724137934"></rect><rect shape-rendering="optimizeSpeed" fill="#000" x="275.3448275862069" y="106.37931034482759"  width="16.996551724137934" height="16.996551724137934"></rect><rect shape-rendering="optimizeSpeed" fill="#000" x="309.1379310344828" y="106.37931034482759"  width="16.996551724137934" height="16.996551724137934"></rect><rect shape-rendering="optimizeSpeed" fill="#000" x="342.93103448275866" y="106.37931034482759"  width="16.996551724137934" height="16.996551724137934"></rect><rect shape-rendering="optimizeSpeed" fill="#000" x="376.72413793103453" y="106.37931034482759"  width="16.996551724137934" height="16.996551724137934"></rect><rect shape-rendering="optimizeSpeed" fill="#000" x="393.62068965517244" y="106.37931034482759"  width="16.996551724137934" height="16.996551724137934"></rect><rect shape-rendering="optimizeSpeed" fill="#000" x="410.51724137931035" y="106.37931034482759"  width="16.996551724137934" height="16.996551724137934"></rect><rect shape-rendering="optimizeSpeed" fill="#000" x="427.4137931034483" y="106.37931034482759"  width="16.996551724137934" height="16.996551724137934"></rect><rect shape-rendering="optimizeSpeed" fill="#000" x="444.3103448275862" y="106.37931034482759"  width="16.996551724137934" height="16.996551724137934"></rect><rect shape-rendering="optimizeSpeed" fill="#000" x="461.2068965517242" y="106.37931034482759"  width="16.996551724137934" height="16.996551724137934"></rect><rect shape-rendering="optimizeSpeed" fill="#000" x="478.1034482758621" y="106.37931034482759"  width="16.996551724137934" height="16.996551724137934"></rect><rect shape-rendering="optimizeSpeed" fill="#000" x="190.86206896551727" y="123.27586206896552"  width="16.996551724137934" height="16.996551724137934"></rect><rect shape-rendering="optimizeSpeed" fill="#000" x="224.6551724137931" y="123.27586206896552"  width="16.996551724137934" height="16.996551724137934"></rect><rect shape-rendering="optimizeSpeed" fill="#000" x="258.44827586206895" y="123.27586206896552"  width="16.996551724137934" height="16.996551724137934"></rect><rect shape-rendering="optimizeSpeed" fill="#000" x="275.3448275862069" y="123.27586206896552"  width="16.996551724137934" height="16.996551724137934"></rect><rect shape-rendering="optimizeSpeed" fill="#000" x="292.2413793103448" y="123.27586206896552"  width="16.996551724137934" height="16.996551724137934"></rect><rect shape-rendering="optimizeSpeed" fill="#000" x="309.1379310344828" y="123.27586206896552"  width="16.996551724137934" height="16.996551724137934"></rect><rect shape-rendering="optimizeSpeed" fill="#000" x="326.0344827586207" y="123.27586206896552"  width="16.996551724137934" height="16.996551724137934"></rect><rect shape-rendering="optimizeSpeed" fill="#000" x="342.93103448275866" y="123.27586206896552"  width="16.996551724137934" height="16.996551724137934"></rect><rect shape-rendering="optimizeSpeed" fill="#000" x="21.896551724137932" y="140.17241379310346"  width="16.996551724137934" height="16.996551724137934"></rect><rect shape-rendering="optimizeSpeed" fill="#000" x="106.37931034482759" y="140.17241379310346"  width="16.996551724137934" height="16.996551724137934"></rect><rect shape-rendering="optimizeSpeed" fill="#000" x="123.27586206896552" y="140.17241379310346"  width="16.996551724137934" height="16.996551724137934"></rect><rect shape-rendering="optimizeSpeed" fill="#000" x="140.17241379310346" y="140.17241379310346"  width="16.996551724137934" height="16.996551724137934"></rect><rect shape-rendering="optimizeSpeed" fill="#000" x="157.0689655172414" y="140.17241379310346"  width="16.996551724137934" height="16.996551724137934"></rect><rect shape-rendering="optimizeSpeed" fill="#000" x="190.86206896551727" y="140.17241379310346"  width="16.996551724137934" height="16.996551724137934"></rect><rect shape-rendering="optimizeSpeed" fill="#000" x="224.6551724137931" y="140.17241379310346"  width="16.996551724137934" height="16.996551724137934"></rect><rect shape-rendering="optimizeSpeed" fill="#000" x="326.0344827586207" y="140.17241379310346"  width="16.996551724137934" height="16.996551724137934"></rect><rect shape-rendering="optimizeSpeed" fill="#000" x="359.82758620689657" y="140.17241379310346"  width="16.996551724137934" height="16.996551724137934"></rect><rect shape-rendering="optimizeSpeed" fill="#000" x="461.2068965517242" y="140.17241379310346"  width="16.996551724137934" height="16.996551724137934"></rect><rect shape-rendering="optimizeSpeed" fill="#000" x="478.1034482758621" y="140.17241379310346"  width="16.996551724137934" height="16.996551724137934"></rect><rect shape-rendering="optimizeSpeed" fill="#000" x="5" y="157.0689655172414"  width="16.996551724137934" height="16.996551724137934"></rect><rect shape-rendering="optimizeSpeed" fill="#000" x="55.689655172413794" y="157.0689655172414"  width="16.996551724137934" height="16.996551724137934"></rect><rect shape-rendering="optimizeSpeed" fill="#000" x="89.48275862068967" y="157.0689655172414"  width="16.996551724137934" height="16.996551724137934"></rect><rect shape-rendering="optimizeSpeed" fill="#000" x="123.27586206896552" y="157.0689655172414"  width="16.996551724137934" height="16.996551724137934"></rect><rect shape-rendering="optimizeSpeed" fill="#000" x="207.75862068965517" y="157.0689655172414"  width="16.996551724137934" height="16.996551724137934"></rect><rect shape-rendering="optimizeSpeed" fill="#000" x="241.55172413793105" y="157.0689655172414"  width="16.996551724137934" height="16.996551724137934"></rect><rect shape-rendering="optimizeSpeed" fill="#000" x="292.2413793103448" y="157.0689655172414"  width="16.996551724137934" height="16.996551724137934"></rect><rect shape-rendering="optimizeSpeed" fill="#000" x="309.1379310344828" y="157.0689655172414"  width="16.996551724137934" height="16.996551724137934"></rect><rect shape-rendering="optimizeSpeed" fill="#000" x="359.82758620689657" y="157.0689655172414"  width="16.996551724137934" height="16.996551724137934"></rect><rect shape-rendering="optimizeSpeed" fill="#000" x="393.62068965517244" y="157.0689655172414"  width="16.996551724137934" height="16.996551724137934"></rect><rect shape-rendering="optimizeSpeed" fill="#000" x="410.51724137931035" y="157.0689655172414"  width="16.996551724137934" height="16.996551724137934"></rect><rect shape-rendering="optimizeSpeed" fill="#000" x="444.3103448275862" y="157.0689655172414"  width="16.996551724137934" height="16.996551724137934"></rect><rect shape-rendering="optimizeSpeed" fill="#000" x="461.2068965517242" y="157.0689655172414"  width="16.996551724137934" height="16.996551724137934"></rect><rect shape-rendering="optimizeSpeed" fill="#000" x="5" y="173.96551724137933"  width="16.996551724137934" height="16.996551724137934"></rect><rect shape-rendering="optimizeSpeed" fill="#000" x="89.48275862068967" y="173.96551724137933"  width="16.996551724137934" height="16.996551724137934"></rect><rect shape-rendering="optimizeSpeed" fill="#000" x="106.37931034482759" y="173.96551724137933"  width="16.996551724137934" height="16.996551724137934"></rect><rect shape-rendering="optimizeSpeed" fill="#000" x="123.27586206896552" y="173.96551724137933"  width="16.996551724137934" height="16.996551724137934"></rect><rect shape-rendering="optimizeSpeed" fill="#000" x="157.0689655172414" y="173.96551724137933"  width="16.996551724137934" height="16.996551724137934"></rect><rect shape-rendering="optimizeSpeed" fill="#000" x="173.96551724137933" y="173.96551724137933"  width="16.996551724137934" height="16.996551724137934"></rect><rect shape-rendering="optimizeSpeed" fill="#000" x="190.86206896551727" y="173.96551724137933"  width="16.996551724137934" height="16.996551724137934"></rect><rect shape-rendering="optimizeSpeed" fill="#000" x="275.3448275862069" y="173.96551724137933"  width="16.996551724137934" height="16.996551724137934"></rect><rect shape-rendering="optimizeSpeed" fill="#000" x="292.2413793103448" y="173.96551724137933"  width="16.996551724137934" height="16.996551724137934"></rect><rect shape-rendering="optimizeSpeed" fill="#000" x="326.0344827586207" y="173.96551724137933"  width="16.996551724137934" height="16.996551724137934"></rect><rect shape-rendering="optimizeSpeed" fill="#000" x="376.72413793103453" y="173.96551724137933"  width="16.996551724137934" height="16.996551724137934"></rect><rect shape-rendering="optimizeSpeed" fill="#000" x="393.62068965517244" y="173.96551724137933"  width="16.996551724137934" height="16.996551724137934"></rect><rect shape-rendering="optimizeSpeed" fill="#000" x="410.51724137931035" y="173.96551724137933"  width="16.996551724137934" height="16.996551724137934"></rect><rect shape-rendering="optimizeSpeed" fill="#000" x="427.4137931034483" y="173.96551724137933"  width="16.996551724137934" height="16.996551724137934"></rect><rect shape-rendering="optimizeSpeed" fill="#000" x="444.3103448275862" y="173.96551724137933"  width="16.996551724137934" height="16.996551724137934"></rect><rect shape-rendering="optimizeSpeed" fill="#000" x="21.896551724137932" y="190.86206896551727"  width="16.996551724137934" height="16.996551724137934"></rect><rect shape-rendering="optimizeSpeed" fill="#000" x="55.689655172413794" y="190.86206896551727"  width="16.996551724137934" height="16.996551724137934"></rect><rect shape-rendering="optimizeSpeed" fill="#000" x="89.48275862068967" y="190.86206896551727"  width="16.996551724137934" height="16.996551724137934"></rect><rect shape-rendering="optimizeSpeed" fill="#000" x="157.0689655172414" y="190.86206896551727"  width="16.996551724137934" height="16.996551724137934"></rect><rect shape-rendering="optimizeSpeed" fill="#000" x="207.75862068965517" y="190.86206896551727"  width="16.996551724137934" height="16.996551724137934"></rect><rect shape-rendering="optimizeSpeed" fill="#000" x="258.44827586206895" y="190.86206896551727"  width="16.996551724137934" height="16.996551724137934"></rect><rect shape-rendering="optimizeSpeed" fill="#000" x="275.3448275862069" y="190.86206896551727"  width="16.996551724137934" height="16.996551724137934"></rect><rect shape-rendering="optimizeSpeed" fill="#000" x="309.1379310344828" y="190.86206896551727"  width="16.996551724137934" height="16.996551724137934"></rect><rect shape-rendering="optimizeSpeed" fill="#000" x="326.0344827586207" y="190.86206896551727"  width="16.996551724137934" height="16.996551724137934"></rect><rect shape-rendering="optimizeSpeed" fill="#000" x="342.93103448275866" y="190.86206896551727"  width="16.996551724137934" height="16.996551724137934"></rect><rect shape-rendering="optimizeSpeed" fill="#000" x="359.82758620689657" y="190.86206896551727"  width="16.996551724137934" height="16.996551724137934"></rect><rect shape-rendering="optimizeSpeed" fill="#000" x="376.72413793103453" y="190.86206896551727"  width="16.996551724137934" height="16.996551724137934"></rect><rect shape-rendering="optimizeSpeed" fill="#000" x="427.4137931034483" y="190.86206896551727"  width="16.996551724137934" height="16.996551724137934"></rect><rect shape-rendering="optimizeSpeed" fill="#000" x="21.896551724137932" y="207.75862068965517"  width="16.996551724137934" height="16.996551724137934"></rect><rect shape-rendering="optimizeSpeed" fill="#000" x="72.58620689655173" y="207.75862068965517"  width="16.996551724137934" height="16.996551724137934"></rect><rect shape-rendering="optimizeSpeed" fill="#000" x="106.37931034482759" y="207.75862068965517"  width="16.996551724137934" height="16.996551724137934"></rect><rect shape-rendering="optimizeSpeed" fill="#000" x="123.27586206896552" y="207.75862068965517"  width="16.996551724137934" height="16.996551724137934"></rect><rect shape-rendering="optimizeSpeed" fill="#000" x="140.17241379310346" y="207.75862068965517"  width="16.996551724137934" height="16.996551724137934"></rect><rect shape-rendering="optimizeSpeed" fill="#000" x="157.0689655172414" y="207.75862068965517"  width="16.996551724137934" height="16.996551724137934"></rect><rect shape-rendering="optimizeSpeed" fill="#000" x="190.86206896551727" y="207.75862068965517"  width="16.996551724137934" height="16.996551724137934"></rect><rect shape-rendering="optimizeSpeed" fill="#000" x="207.75862068965517" y="207.75862068965517"  width="16.996551724137934" height="16.996551724137934"></rect><rect shape-rendering="optimizeSpeed" fill="#000" x="258.44827586206895" y="207.75862068965517"  width="16.996551724137934" height="16.996551724137934"></rect><rect shape-rendering="optimizeSpeed" fill="#000" x="342.93103448275866" y="207.75862068965517"  width="16.996551724137934" height="16.996551724137934"></rect><rect shape-rendering="optimizeSpeed" fill="#000" x="359.82758620689657" y="207.75862068965517"  width="16.996551724137934" height="16.996551724137934"></rect><rect shape-rendering="optimizeSpeed" fill="#000" x="376.72413793103453" y="207.75862068965517"  width="16.996551724137934" height="16.996551724137934"></rect><rect shape-rendering="optimizeSpeed" fill="#000" x="393.62068965517244" y="207.75862068965517"  width="16.996551724137934" height="16.996551724137934"></rect><rect shape-rendering="optimizeSpeed" fill="#000" x="461.2068965517242" y="207.75862068965517"  width="16.996551724137934" height="16.996551724137934"></rect><rect shape-rendering="optimizeSpeed" fill="#000" x="5" y="224.6551724137931"  width="16.996551724137934" height="16.996551724137934"></rect><rect shape-rendering="optimizeSpeed" fill="#000" x="72.58620689655173" y="224.6551724137931"  width="16.996551724137934" height="16.996551724137934"></rect><rect shape-rendering="optimizeSpeed" fill="#000" x="89.48275862068967" y="224.6551724137931"  width="16.996551724137934" height="16.996551724137934"></rect><rect shape-rendering="optimizeSpeed" fill="#000" x="140.17241379310346" y="224.6551724137931"  width="16.996551724137934" height="16.996551724137934"></rect><rect shape-rendering="optimizeSpeed" fill="#000" x="157.0689655172414" y="224.6551724137931"  width="16.996551724137934" height="16.996551724137934"></rect><rect shape-rendering="optimizeSpeed" fill="#000" x="173.96551724137933" y="224.6551724137931"  width="16.996551724137934" height="16.996551724137934"></rect><rect shape-rendering="optimizeSpeed" fill="#000" x="190.86206896551727" y="224.6551724137931"  width="16.996551724137934" height="16.996551724137934"></rect><rect shape-rendering="optimizeSpeed" fill="#000" x="207.75862068965517" y="224.6551724137931"  width="16.996551724137934" height="16.996551724137934"></rect><rect shape-rendering="optimizeSpeed" fill="#000" x="241.55172413793105" y="224.6551724137931"  width="16.996551724137934" height="16.996551724137934"></rect><rect shape-rendering="optimizeSpeed" fill="#000" x="309.1379310344828" y="224.6551724137931"  width="16.996551724137934" height="16.996551724137934"></rect><rect shape-rendering="optimizeSpeed" fill="#000" x="326.0344827586207" y="224.6551724137931"  width="16.996551724137934" height="16.996551724137934"></rect><rect shape-rendering="optimizeSpeed" fill="#000" x="342.93103448275866" y="224.6551724137931"  width="16.996551724137934" height="16.996551724137934"></rect><rect shape-rendering="optimizeSpeed" fill="#000" x="376.72413793103453" y="224.6551724137931"  width="16.996551724137934" height="16.996551724137934"></rect><rect shape-rendering="optimizeSpeed" fill="#000" x="410.51724137931035" y="224.6551724137931"  width="16.996551724137934" height="16.996551724137934"></rect><rect shape-rendering="optimizeSpeed" fill="#000" x="427.4137931034483" y="224.6551724137931"  width="16.996551724137934" height="16.996551724137934"></rect><rect shape-rendering="optimizeSpeed" fill="#000" x="461.2068965517242" y="224.6551724137931"  width="16.996551724137934" height="16.996551724137934"></rect><rect shape-rendering="optimizeSpeed" fill="#000" x="478.1034482758621" y="224.6551724137931"  width="16.996551724137934" height="16.996551724137934"></rect><rect shape-rendering="optimizeSpeed" fill="#000" x="38.793103448275865" y="241.55172413793105"  width="16.996551724137934" height="16.996551724137934"></rect><rect shape-rendering="optimizeSpeed" fill="#000" x="55.689655172413794" y="241.55172413793105"  width="16.996551724137934" height="16.996551724137934"></rect><rect shape-rendering="optimizeSpeed" fill="#000" x="72.58620689655173" y="241.55172413793105"  width="16.996551724137934" height="16.996551724137934"></rect><rect shape-rendering="optimizeSpeed" fill="#000" x="89.48275862068967" y="241.55172413793105"  width="16.996551724137934" height="16.996551724137934"></rect><rect shape-rendering="optimizeSpeed" fill="#000" x="106.37931034482759" y="241.55172413793105"  width="16.996551724137934" height="16.996551724137934"></rect><rect shape-rendering="optimizeSpeed" fill="#000" x="123.27586206896552" y="241.55172413793105"  width="16.996551724137934" height="16.996551724137934"></rect><rect shape-rendering="optimizeSpeed" fill="#000" x="140.17241379310346" y="241.55172413793105"  width="16.996551724137934" height="16.996551724137934"></rect><rect shape-rendering="optimizeSpeed" fill="#000" x="190.86206896551727" y="241.55172413793105"  width="16.996551724137934" height="16.996551724137934"></rect><rect shape-rendering="optimizeSpeed" fill="#000" x="207.75862068965517" y="241.55172413793105"  width="16.996551724137934" height="16.996551724137934"></rect><rect shape-rendering="optimizeSpeed" fill="#000" x="224.6551724137931" y="241.55172413793105"  width="16.996551724137934" height="16.996551724137934"></rect><rect shape-rendering="optimizeSpeed" fill="#000" x="241.55172413793105" y="241.55172413793105"  width="16.996551724137934" height="16.996551724137934"></rect><rect shape-rendering="optimizeSpeed" fill="#000" x="258.44827586206895" y="241.55172413793105"  width="16.996551724137934" height="16.996551724137934"></rect><rect shape-rendering="optimizeSpeed" fill="#000" x="309.1379310344828" y="241.55172413793105"  width="16.996551724137934" height="16.996551724137934"></rect><rect shape-rendering="optimizeSpeed" fill="#000" x="359.82758620689657" y="241.55172413793105"  width="16.996551724137934" height="16.996551724137934"></rect><rect shape-rendering="optimizeSpeed" fill="#000" x="376.72413793103453" y="241.55172413793105"  width="16.996551724137934" height="16.996551724137934"></rect><rect shape-rendering="optimizeSpeed" fill="#000" x="38.793103448275865" y="258.44827586206895"  width="16.996551724137934" height="16.996551724137934"></rect><rect shape-rendering="optimizeSpeed" fill="#000" x="55.689655172413794" y="258.44827586206895"  width="16.996551724137934" height="16.996551724137934"></rect><rect shape-rendering="optimizeSpeed" fill="#000" x="72.58620689655173" y="258.44827586206895"  width="16.996551724137934" height="16.996551724137934"></rect><rect shape-rendering="optimizeSpeed" fill="#000" x="140.17241379310346" y="258.44827586206895"  width="16.996551724137934" height="16.996551724137934"></rect><rect shape-rendering="optimizeSpeed" fill="#000" x="173.96551724137933" y="258.44827586206895"  width="16.996551724137934" height="16.996551724137934"></rect><rect shape-rendering="optimizeSpeed" fill="#000" x="241.55172413793105" y="258.44827586206895"  width="16.996551724137934" height="16.996551724137934"></rect><rect shape-rendering="optimizeSpeed" fill="#000" x="427.4137931034483" y="258.44827586206895"  width="16.996551724137934" height="16.996551724137934"></rect><rect shape-rendering="optimizeSpeed" fill="#000" x="444.3103448275862" y="258.44827586206895"  width="16.996551724137934" height="16.996551724137934"></rect><rect shape-rendering="optimizeSpeed" fill="#000" x="461.2068965517242" y="258.44827586206895"  width="16.996551724137934" height="16.996551724137934"></rect><rect shape-rendering="optimizeSpeed" fill="#000" x="478.1034482758621" y="258.44827586206895"  width="16.996551724137934" height="16.996551724137934"></rect><rect shape-rendering="optimizeSpeed" fill="#000" x="21.896551724137932" y="275.3448275862069"  width="16.996551724137934" height="16.996551724137934"></rect><rect shape-rendering="optimizeSpeed" fill="#000" x="89.48275862068967" y="275.3448275862069"  width="16.996551724137934" height="16.996551724137934"></rect><rect shape-rendering="optimizeSpeed" fill="#000" x="106.37931034482759" y="275.3448275862069"  width="16.996551724137934" height="16.996551724137934"></rect><rect shape-rendering="optimizeSpeed" fill="#000" x="123.27586206896552" y="275.3448275862069"  width="16.996551724137934" height="16.996551724137934"></rect><rect shape-rendering="optimizeSpeed" fill="#000" x="157.0689655172414" y="275.3448275862069"  width="16.996551724137934" height="16.996551724137934"></rect><rect shape-rendering="optimizeSpeed" fill="#000" x="173.96551724137933" y="275.3448275862069"  width="16.996551724137934" height="16.996551724137934"></rect><rect shape-rendering="optimizeSpeed" fill="#000" x="190.86206896551727" y="275.3448275862069"  width="16.996551724137934" height="16.996551724137934"></rect><rect shape-rendering="optimizeSpeed" fill="#000" x="207.75862068965517" y="275.3448275862069"  width="16.996551724137934" height="16.996551724137934"></rect><rect shape-rendering="optimizeSpeed" fill="#000" x="224.6551724137931" y="275.3448275862069"  width="16.996551724137934" height="16.996551724137934"></rect><rect shape-rendering="optimizeSpeed" fill="#000" x="241.55172413793105" y="275.3448275862069"  width="16.996551724137934" height="16.996551724137934"></rect><rect shape-rendering="optimizeSpeed" fill="#000" x="258.44827586206895" y="275.3448275862069"  width="16.996551724137934" height="16.996551724137934"></rect><rect shape-rendering="optimizeSpeed" fill="#000" x="309.1379310344828" y="275.3448275862069"  width="16.996551724137934" height="16.996551724137934"></rect><rect shape-rendering="optimizeSpeed" fill="#000" x="326.0344827586207" y="275.3448275862069"  width="16.996551724137934" height="16.996551724137934"></rect><rect shape-rendering="optimizeSpeed" fill="#000" x="342.93103448275866" y="275.3448275862069"  width="16.996551724137934" height="16.996551724137934"></rect><rect shape-rendering="optimizeSpeed" fill="#000" x="359.82758620689657" y="275.3448275862069"  width="16.996551724137934" height="16.996551724137934"></rect><rect shape-rendering="optimizeSpeed" fill="#000" x="393.62068965517244" y="275.3448275862069"  width="16.996551724137934" height="16.996551724137934"></rect><rect shape-rendering="optimizeSpeed" fill="#000" x="427.4137931034483" y="275.3448275862069"  width="16.996551724137934" height="16.996551724137934"></rect><rect shape-rendering="optimizeSpeed" fill="#000" x="444.3103448275862" y="275.3448275862069"  width="16.996551724137934" height="16.996551724137934"></rect><rect shape-rendering="optimizeSpeed" fill="#000" x="461.2068965517242" y="275.3448275862069"  width="16.996551724137934" height="16.996551724137934"></rect><rect shape-rendering="optimizeSpeed" fill="#000" x="478.1034482758621" y="275.3448275862069"  width="16.996551724137934" height="16.996551724137934"></rect><rect shape-rendering="optimizeSpeed" fill="#000" x="5" y="292.2413793103448"  width="16.996551724137934" height="16.996551724137934"></rect><rect shape-rendering="optimizeSpeed" fill="#000" x="55.689655172413794" y="292.2413793103448"  width="16.996551724137934" height="16.996551724137934"></rect><rect shape-rendering="optimizeSpeed" fill="#000" x="123.27586206896552" y="292.2413793103448"  width="16.996551724137934" height="16.996551724137934"></rect><rect shape-rendering="optimizeSpeed" fill="#000" x="157.0689655172414" y="292.2413793103448"  width="16.996551724137934" height="16.996551724137934"></rect><rect shape-rendering="optimizeSpeed" fill="#000" x="190.86206896551727" y="292.2413793103448"  width="16.996551724137934" height="16.996551724137934"></rect><rect shape-rendering="optimizeSpeed" fill="#000" x="275.3448275862069" y="292.2413793103448"  width="16.996551724137934" height="16.996551724137934"></rect><rect shape-rendering="optimizeSpeed" fill="#000" x="393.62068965517244" y="292.2413793103448"  width="16.996551724137934" height="16.996551724137934"></rect><rect shape-rendering="optimizeSpeed" fill="#000" x="410.51724137931035" y="292.2413793103448"  width="16.996551724137934" height="16.996551724137934"></rect><rect shape-rendering="optimizeSpeed" fill="#000" x="427.4137931034483" y="292.2413793103448"  width="16.996551724137934" height="16.996551724137934"></rect><rect shape-rendering="optimizeSpeed" fill="#000" x="478.1034482758621" y="292.2413793103448"  width="16.996551724137934" height="16.996551724137934"></rect><rect shape-rendering="optimizeSpeed" fill="#000" x="5" y="309.1379310344828"  width="16.996551724137934" height="16.996551724137934"></rect><rect shape-rendering="optimizeSpeed" fill="#000" x="21.896551724137932" y="309.1379310344828"  width="16.996551724137934" height="16.996551724137934"></rect><rect shape-rendering="optimizeSpeed" fill="#000" x="55.689655172413794" y="309.1379310344828"  width="16.996551724137934" height="16.996551724137934"></rect><rect shape-rendering="optimizeSpeed" fill="#000" x="72.58620689655173" y="309.1379310344828"  width="16.996551724137934" height="16.996551724137934"></rect><rect shape-rendering="optimizeSpeed" fill="#000" x="106.37931034482759" y="309.1379310344828"  width="16.996551724137934" height="16.996551724137934"></rect><rect shape-rendering="optimizeSpeed" fill="#000" x="157.0689655172414" y="309.1379310344828"  width="16.996551724137934" height="16.996551724137934"></rect><rect shape-rendering="optimizeSpeed" fill="#000" x="275.3448275862069" y="309.1379310344828"  width="16.996551724137934" height="16.996551724137934"></rect><rect shape-rendering="optimizeSpeed" fill="#000" x="326.0344827586207" y="309.1379310344828"  width="16.996551724137934" height="16.996551724137934"></rect><rect shape-rendering="optimizeSpeed" fill="#000" x="393.62068965517244" y="309.1379310344828"  width="16.996551724137934" height="16.996551724137934"></rect><rect shape-rendering="optimizeSpeed" fill="#000" x="410.51724137931035" y="309.1379310344828"  width="16.996551724137934" height="16.996551724137934"></rect><rect shape-rendering="optimizeSpeed" fill="#000" x="444.3103448275862" y="309.1379310344828"  width="16.996551724137934" height="16.996551724137934"></rect><rect shape-rendering="optimizeSpeed" fill="#000" x="478.1034482758621" y="309.1379310344828"  width="16.996551724137934" height="16.996551724137934"></rect><rect shape-rendering="optimizeSpeed" fill="#000" x="5" y="326.0344827586207"  width="16.996551724137934" height="16.996551724137934"></rect><rect shape-rendering="optimizeSpeed" fill="#000" x="72.58620689655173" y="326.0344827586207"  width="16.996551724137934" height="16.996551724137934"></rect><rect shape-rendering="optimizeSpeed" fill="#000" x="157.0689655172414" y="326.0344827586207"  width="16.996551724137934" height="16.996551724137934"></rect><rect shape-rendering="optimizeSpeed" fill="#000" x="190.86206896551727" y="326.0344827586207"  width="16.996551724137934" height="16.996551724137934"></rect><rect shape-rendering="optimizeSpeed" fill="#000" x="207.75862068965517" y="326.0344827586207"  width="16.996551724137934" height="16.996551724137934"></rect><rect shape-rendering="optimizeSpeed" fill="#000" x="224.6551724137931" y="326.0344827586207"  width="16.996551724137934" height="16.996551724137934"></rect><rect shape-rendering="optimizeSpeed" fill="#000" x="258.44827586206895" y="326.0344827586207"  width="16.996551724137934" height="16.996551724137934"></rect><rect shape-rendering="optimizeSpeed" fill="#000" x="275.3448275862069" y="326.0344827586207"  width="16.996551724137934" height="16.996551724137934"></rect><rect shape-rendering="optimizeSpeed" fill="#000" x="359.82758620689657" y="326.0344827586207"  width="16.996551724137934" height="16.996551724137934"></rect><rect shape-rendering="optimizeSpeed" fill="#000" x="376.72413793103453" y="326.0344827586207"  width="16.996551724137934" height="16.996551724137934"></rect><rect shape-rendering="optimizeSpeed" fill="#000" x="461.2068965517242" y="326.0344827586207"  width="16.996551724137934" height="16.996551724137934"></rect><rect shape-rendering="optimizeSpeed" fill="#000" x="478.1034482758621" y="326.0344827586207"  width="16.996551724137934" height="16.996551724137934"></rect><rect shape-rendering="optimizeSpeed" fill="#000" x="5" y="342.93103448275866"  width="16.996551724137934" height="16.996551724137934"></rect><rect shape-rendering="optimizeSpeed" fill="#000" x="38.793103448275865" y="342.93103448275866"  width="16.996551724137934" height="16.996551724137934"></rect><rect shape-rendering="optimizeSpeed" fill="#000" x="72.58620689655173" y="342.93103448275866"  width="16.996551724137934" height="16.996551724137934"></rect><rect shape-rendering="optimizeSpeed" fill="#000" x="89.48275862068967" y="342.93103448275866"  width="16.996551724137934" height="16.996551724137934"></rect><rect shape-rendering="optimizeSpeed" fill="#000" x="106.37931034482759" y="342.93103448275866"  width="16.996551724137934" height="16.996551724137934"></rect><rect shape-rendering="optimizeSpeed" fill="#000" x="157.0689655172414" y="342.93103448275866"  width="16.996551724137934" height="16.996551724137934"></rect><rect shape-rendering="optimizeSpeed" fill="#000" x="190.86206896551727" y="342.93103448275866"  width="16.996551724137934" height="16.996551724137934"></rect><rect shape-rendering="optimizeSpeed" fill="#000" x="241.55172413793105" y="342.93103448275866"  width="16.996551724137934" height="16.996551724137934"></rect><rect shape-rendering="optimizeSpeed" fill="#000" x="292.2413793103448" y="342.93103448275866"  width="16.996551724137934" height="16.996551724137934"></rect><rect shape-rendering="optimizeSpeed" fill="#000" x="342.93103448275866" y="342.93103448275866"  width="16.996551724137934" height="16.996551724137934"></rect><rect shape-rendering="optimizeSpeed" fill="#000" x="359.82758620689657" y="342.93103448275866"  width="16.996551724137934" height="16.996551724137934"></rect><rect shape-rendering="optimizeSpeed" fill="#000" x="376.72413793103453" y="342.93103448275866"  width="16.996551724137934" height="16.996551724137934"></rect><rect shape-rendering="optimizeSpeed" fill="#000" x="393.62068965517244" y="342.93103448275866"  width="16.996551724137934" height="16.996551724137934"></rect><rect shape-rendering="optimizeSpeed" fill="#000" x="410.51724137931035" y="342.93103448275866"  width="16.996551724137934" height="16.996551724137934"></rect><rect shape-rendering="optimizeSpeed" fill="#000" x="444.3103448275862" y="342.93103448275866"  width="16.996551724137934" height="16.996551724137934"></rect><rect shape-rendering="optimizeSpeed" fill="#000" x="140.17241379310346" y="359.82758620689657"  width="16.996551724137934" height="16.996551724137934"></rect><rect shape-rendering="optimizeSpeed" fill="#000" x="157.0689655172414" y="359.82758620689657"  width="16.996551724137934" height="16.996551724137934"></rect><rect shape-rendering="optimizeSpeed" fill="#000" x="190.86206896551727" y="359.82758620689657"  width="16.996551724137934" height="16.996551724137934"></rect><rect shape-rendering="optimizeSpeed" fill="#000" x="207.75862068965517" y="359.82758620689657"  width="16.996551724137934" height="16.996551724137934"></rect><rect shape-rendering="optimizeSpeed" fill="#000" x="224.6551724137931" y="359.82758620689657"  width="16.996551724137934" height="16.996551724137934"></rect><rect shape-rendering="optimizeSpeed" fill="#000" x="258.44827586206895" y="359.82758620689657"  width="16.996551724137934" height="16.996551724137934"></rect><rect shape-rendering="optimizeSpeed" fill="#000" x="292.2413793103448" y="359.82758620689657"  width="16.996551724137934" height="16.996551724137934"></rect><rect shape-rendering="optimizeSpeed" fill="#000" x="342.93103448275866" y="359.82758620689657"  width="16.996551724137934" height="16.996551724137934"></rect><rect shape-rendering="optimizeSpeed" fill="#000" x="410.51724137931035" y="359.82758620689657"  width="16.996551724137934" height="16.996551724137934"></rect><rect shape-rendering="optimizeSpeed" fill="#000" x="427.4137931034483" y="359.82758620689657"  width="16.996551724137934" height="16.996551724137934"></rect><rect shape-rendering="optimizeSpeed" fill="#000" x="444.3103448275862" y="359.82758620689657"  width="16.996551724137934" height="16.996551724137934"></rect><rect shape-rendering="optimizeSpeed" fill="#000" x="461.2068965517242" y="359.82758620689657"  width="16.996551724137934" height="16.996551724137934"></rect><rect shape-rendering="optimizeSpeed" fill="#000" x="5" y="376.72413793103453"  width="16.996551724137934" height="16.996551724137934"></rect><rect shape-rendering="optimizeSpeed" fill="#000" x="21.896551724137932" y="376.72413793103453"  width="16.996551724137934" height="16.996551724137934"></rect><rect shape-rendering="optimizeSpeed" fill="#000" x="38.793103448275865" y="376.72413793103453"  width="16.996551724137934" height="16.996551724137934"></rect><rect shape-rendering="optimizeSpeed" fill="#000" x="55.689655172413794" y="376.72413793103453"  width="16.996551724137934" height="16.996551724137934"></rect><rect shape-rendering="optimizeSpeed" fill="#000" x="72.58620689655173" y="376.72413793103453"  width="16.996551724137934" height="16.996551724137934"></rect><rect shape-rendering="optimizeSpeed" fill="#000" x="89.48275862068967" y="376.72413793103453"  width="16.996551724137934" height="16.996551724137934"></rect><rect shape-rendering="optimizeSpeed" fill="#000" x="106.37931034482759" y="376.72413793103453"  width="16.996551724137934" height="16.996551724137934"></rect><rect shape-rendering="optimizeSpeed" fill="#000" x="140.17241379310346" y="376.72413793103453"  width="16.996551724137934" height="16.996551724137934"></rect><rect shape-rendering="optimizeSpeed" fill="#000" x="157.0689655172414" y="376.72413793103453"  width="16.996551724137934" height="16.996551724137934"></rect><rect shape-rendering="optimizeSpeed" fill="#000" x="173.96551724137933" y="376.72413793103453"  width="16.996551724137934" height="16.996551724137934"></rect><rect shape-rendering="optimizeSpeed" fill="#000" x="207.75862068965517" y="376.72413793103453"  width="16.996551724137934" height="16.996551724137934"></rect><rect shape-rendering="optimizeSpeed" fill="#000" x="224.6551724137931" y="376.72413793103453"  width="16.996551724137934" height="16.996551724137934"></rect><rect shape-rendering="optimizeSpeed" fill="#000" x="258.44827586206895" y="376.72413793103453"  width="16.996551724137934" height="16.996551724137934"></rect><rect shape-rendering="optimizeSpeed" fill="#000" x="292.2413793103448" y="376.72413793103453"  width="16.996551724137934" height="16.996551724137934"></rect><rect shape-rendering="optimizeSpeed" fill="#000" x="326.0344827586207" y="376.72413793103453"  width="16.996551724137934" height="16.996551724137934"></rect><rect shape-rendering="optimizeSpeed" fill="#000" x="342.93103448275866" y="376.72413793103453"  width="16.996551724137934" height="16.996551724137934"></rect><rect shape-rendering="optimizeSpeed" fill="#000" x="376.72413793103453" y="376.72413793103453"  width="16.996551724137934" height="16.996551724137934"></rect><rect shape-rendering="optimizeSpeed" fill="#000" x="410.51724137931035" y="376.72413793103453"  width="16.996551724137934" height="16.996551724137934"></rect><rect shape-rendering="optimizeSpeed" fill="#000" x="5" y="393.62068965517244"  width="16.996551724137934" height="16.996551724137934"></rect><rect shape-rendering="optimizeSpeed" fill="#000" x="106.37931034482759" y="393.62068965517244"  width="16.996551724137934" height="16.996551724137934"></rect><rect shape-rendering="optimizeSpeed" fill="#000" x="173.96551724137933" y="393.62068965517244"  width="16.996551724137934" height="16.996551724137934"></rect><rect shape-rendering="optimizeSpeed" fill="#000" x="224.6551724137931" y="393.62068965517244"  width="16.996551724137934" height="16.996551724137934"></rect><rect shape-rendering="optimizeSpeed" fill="#000" x="241.55172413793105" y="393.62068965517244"  width="16.996551724137934" height="16.996551724137934"></rect><rect shape-rendering="optimizeSpeed" fill="#000" x="258.44827586206895" y="393.62068965517244"  width="16.996551724137934" height="16.996551724137934"></rect><rect shape-rendering="optimizeSpeed" fill="#000" x="275.3448275862069" y="393.62068965517244"  width="16.996551724137934" height="16.996551724137934"></rect><rect shape-rendering="optimizeSpeed" fill="#000" x="292.2413793103448" y="393.62068965517244"  width="16.996551724137934" height="16.996551724137934"></rect><rect shape-rendering="optimizeSpeed" fill="#000" x="309.1379310344828" y="393.62068965517244"  width="16.996551724137934" height="16.996551724137934"></rect><rect shape-rendering="optimizeSpeed" fill="#000" x="326.0344827586207" y="393.62068965517244"  width="16.996551724137934" height="16.996551724137934"></rect><rect shape-rendering="optimizeSpeed" fill="#000" x="342.93103448275866" y="393.62068965517244"  width="16.996551724137934" height="16.996551724137934"></rect><rect shape-rendering="optimizeSpeed" fill="#000" x="410.51724137931035" y="393.62068965517244"  width="16.996551724137934" height="16.996551724137934"></rect><rect shape-rendering="optimizeSpeed" fill="#000" x="427.4137931034483" y="393.62068965517244"  width="16.996551724137934" height="16.996551724137934"></rect><rect shape-rendering="optimizeSpeed" fill="#000" x="461.2068965517242" y="393.62068965517244"  width="16.996551724137934" height="16.996551724137934"></rect><rect shape-rendering="optimizeSpeed" fill="#000" x="5" y="410.51724137931035"  width="16.996551724137934" height="16.996551724137934"></rect><rect shape-rendering="optimizeSpeed" fill="#000" x="38.793103448275865" y="410.51724137931035"  width="16.996551724137934" height="16.996551724137934"></rect><rect shape-rendering="optimizeSpeed" fill="#000" x="55.689655172413794" y="410.51724137931035"  width="16.996551724137934" height="16.996551724137934"></rect><rect shape-rendering="optimizeSpeed" fill="#000" x="72.58620689655173" y="410.51724137931035"  width="16.996551724137934" height="16.996551724137934"></rect><rect shape-rendering="optimizeSpeed" fill="#000" x="106.37931034482759" y="410.51724137931035"  width="16.996551724137934" height="16.996551724137934"></rect><rect shape-rendering="optimizeSpeed" fill="#000" x="173.96551724137933" y="410.51724137931035"  width="16.996551724137934" height="16.996551724137934"></rect><rect shape-rendering="optimizeSpeed" fill="#000" x="241.55172413793105" y="410.51724137931035"  width="16.996551724137934" height="16.996551724137934"></rect><rect shape-rendering="optimizeSpeed" fill="#000" x="292.2413793103448" y="410.51724137931035"  width="16.996551724137934" height="16.996551724137934"></rect><rect shape-rendering="optimizeSpeed" fill="#000" x="326.0344827586207" y="410.51724137931035"  width="16.996551724137934" height="16.996551724137934"></rect><rect shape-rendering="optimizeSpeed" fill="#000" x="342.93103448275866" y="410.51724137931035"  width="16.996551724137934" height="16.996551724137934"></rect><rect shape-rendering="optimizeSpeed" fill="#000" x="359.82758620689657" y="410.51724137931035"  width="16.996551724137934" height="16.996551724137934"></rect><rect shape-rendering="optimizeSpeed" fill="#000" x="376.72413793103453" y="410.51724137931035"  width="16.996551724137934" height="16.996551724137934"></rect><rect shape-rendering="optimizeSpeed" fill="#000" x="393.62068965517244" y="410.51724137931035"  width="16.996551724137934" height="16.996551724137934"></rect><rect shape-rendering="optimizeSpeed" fill="#000" x="410.51724137931035" y="410.51724137931035"  width="16.996551724137934" height="16.996551724137934"></rect><rect shape-rendering="optimizeSpeed" fill="#000" x="478.1034482758621" y="410.51724137931035"  width="16.996551724137934" height="16.996551724137934"></rect><rect shape-rendering="optimizeSpeed" fill="#000" x="5" y="427.4137931034483"  width="16.996551724137934" height="16.996551724137934"></rect><rect shape-rendering="optimizeSpeed" fill="#000" x="38.793103448275865" y="427.4137931034483"  width="16.996551724137934" height="16.996551724137934"></rect><rect shape-rendering="optimizeSpeed" fill="#000" x="55.689655172413794" y="427.4137931034483"  width="16.996551724137934" height="16.996551724137934"></rect><rect shape-rendering="optimizeSpeed" fill="#000" x="72.58620689655173" y="427.4137931034483"  width="16.996551724137934" height="16.996551724137934"></rect><rect shape-rendering="optimizeSpeed" fill="#000" x="106.37931034482759" y="427.4137931034483"  width="16.996551724137934" height="16.996551724137934"></rect><rect shape-rendering="optimizeSpeed" fill="#000" x="157.0689655172414" y="427.4137931034483"  width="16.996551724137934" height="16.996551724137934"></rect><rect shape-rendering="optimizeSpeed" fill="#000" x="207.75862068965517" y="427.4137931034483"  width="16.996551724137934" height="16.996551724137934"></rect><rect shape-rendering="optimizeSpeed" fill="#000" x="224.6551724137931" y="427.4137931034483"  width="16.996551724137934" height="16.996551724137934"></rect><rect shape-rendering="optimizeSpeed" fill="#000" x="309.1379310344828" y="427.4137931034483"  width="16.996551724137934" height="16.996551724137934"></rect><rect shape-rendering="optimizeSpeed" fill="#000" x="342.93103448275866" y="427.4137931034483"  width="16.996551724137934" height="16.996551724137934"></rect><rect shape-rendering="optimizeSpeed" fill="#000" x="359.82758620689657" y="427.4137931034483"  width="16.996551724137934" height="16.996551724137934"></rect><rect shape-rendering="optimizeSpeed" fill="#000" x="393.62068965517244" y="427.4137931034483"  width="16.996551724137934" height="16.996551724137934"></rect><rect shape-rendering="optimizeSpeed" fill="#000" x="427.4137931034483" y="427.4137931034483"  width="16.996551724137934" height="16.996551724137934"></rect><rect shape-rendering="optimizeSpeed" fill="#000" x="444.3103448275862" y="427.4137931034483"  width="16.996551724137934" height="16.996551724137934"></rect><rect shape-rendering="optimizeSpeed" fill="#000" x="461.2068965517242" y="427.4137931034483"  width="16.996551724137934" height="16.996551724137934"></rect><rect shape-rendering="optimizeSpeed" fill="#000" x="5" y="444.3103448275862"  width="16.996551724137934" height="16.996551724137934"></rect><rect shape-rendering="optimizeSpeed" fill="#000" x="38.793103448275865" y="444.3103448275862"  width="16.996551724137934" height="16.996551724137934"></rect><rect shape-rendering="optimizeSpeed" fill="#000" x="55.689655172413794" y="444.3103448275862"  width="16.996551724137934" height="16.996551724137934"></rect><rect shape-rendering="optimizeSpeed" fill="#000" x="72.58620689655173" y="444.3103448275862"  width="16.996551724137934" height="16.996551724137934"></rect><rect shape-rendering="optimizeSpeed" fill="#000" x="106.37931034482759" y="444.3103448275862"  width="16.996551724137934" height="16.996551724137934"></rect><rect shape-rendering="optimizeSpeed" fill="#000" x="173.96551724137933" y="444.3103448275862"  width="16.996551724137934" height="16.996551724137934"></rect><rect shape-rendering="optimizeSpeed" fill="#000" x="224.6551724137931" y="444.3103448275862"  width="16.996551724137934" height="16.996551724137934"></rect><rect shape-rendering="optimizeSpeed" fill="#000" x="258.44827586206895" y="444.3103448275862"  width="16.996551724137934" height="16.996551724137934"></rect><rect shape-rendering="optimizeSpeed" fill="#000" x="275.3448275862069" y="444.3103448275862"  width="16.996551724137934" height="16.996551724137934"></rect><rect shape-rendering="optimizeSpeed" fill="#000" x="359.82758620689657" y="444.3103448275862"  width="16.996551724137934" height="16.996551724137934"></rect><rect shape-rendering="optimizeSpeed" fill="#000" x="376.72413793103453" y="444.3103448275862"  width="16.996551724137934" height="16.996551724137934"></rect><rect shape-rendering="optimizeSpeed" fill="#000" x="410.51724137931035" y="444.3103448275862"  width="16.996551724137934" height="16.996551724137934"></rect><rect shape-rendering="optimizeSpeed" fill="#000" x="444.3103448275862" y="444.3103448275862"  width="16.996551724137934" height="16.996551724137934"></rect><rect shape-rendering="optimizeSpeed" fill="#000" x="461.2068965517242" y="444.3103448275862"  width="16.996551724137934" height="16.996551724137934"></rect><rect shape-rendering="optimizeSpeed" fill="#000" x="5" y="461.2068965517242"  width="16.996551724137934" height="16.996551724137934"></rect><rect shape-rendering="optimizeSpeed" fill="#000" x="106.37931034482759" y="461.2068965517242"  width="16.996551724137934" height="16.996551724137934"></rect><rect shape-rendering="optimizeSpeed" fill="#000" x="140.17241379310346" y="461.2068965517242"  width="16.996551724137934" height="16.996551724137934"></rect><rect shape-rendering="optimizeSpeed" fill="#000" x="157.0689655172414" y="461.2068965517242"  width="16.996551724137934" height="16.996551724137934"></rect><rect shape-rendering="optimizeSpeed" fill="#000" x="224.6551724137931" y="461.2068965517242"  width="16.996551724137934" height="16.996551724137934"></rect><rect shape-rendering="optimizeSpeed" fill="#000" x="275.3448275862069" y="461.2068965517242"  width="16.996551724137934" height="16.996551724137934"></rect><rect shape-rendering="optimizeSpeed" fill="#000" x="342.93103448275866" y="461.2068965517242"  width="16.996551724137934" height="16.996551724137934"></rect><rect shape-rendering="optimizeSpeed" fill="#000" x="359.82758620689657" y="461.2068965517242"  width="16.996551724137934" height="16.996551724137934"></rect><rect shape-rendering="optimizeSpeed" fill="#000" x="410.51724137931035" y="461.2068965517242"  width="16.996551724137934" height="16.996551724137934"></rect><rect shape-rendering="optimizeSpeed" fill="#000" x="427.4137931034483" y="461.2068965517242"  width="16.996551724137934" height="16.996551724137934"></rect><rect shape-rendering="optimizeSpeed" fill="#000" x="444.3103448275862" y="461.2068965517242"  width="16.996551724137934" height="16.996551724137934"></rect><rect shape-rendering="optimizeSpeed" fill="#000" x="478.1034482758621" y="461.2068965517242"  width="16.996551724137934" height="16.996551724137934"></rect><rect shape-rendering="optimizeSpeed" fill="#000" x="5" y="478.1034482758621"  width="16.996551724137934" height="16.996551724137934"></rect><rect shape-rendering="optimizeSpeed" fill="#000" x="21.896551724137932" y="478.1034482758621"  width="16.996551724137934" height="16.996551724137934"></rect><rect shape-rendering="optimizeSpeed" fill="#000" x="38.793103448275865" y="478.1034482758621"  width="16.996551724137934" height="16.996551724137934"></rect><rect shape-rendering="optimizeSpeed" fill="#000" x="55.689655172413794" y="478.1034482758621"  width="16.996551724137934" height="16.996551724137934"></rect><rect shape-rendering="optimizeSpeed" fill="#000" x="72.58620689655173" y="478.1034482758621"  width="16.996551724137934" height="16.996551724137934"></rect><rect shape-rendering="optimizeSpeed" fill="#000" x="89.48275862068967" y="478.1034482758621"  width="16.996551724137934" height="16.996551724137934"></rect><rect shape-rendering="optimizeSpeed" fill="#000" x="106.37931034482759" y="478.1034482758621"  width="16.996551724137934" height="16.996551724137934"></rect><rect shape-rendering="optimizeSpeed" fill="#000" x="173.96551724137933" y="478.1034482758621"  width="16.996551724137934" height="16.996551724137934"></rect><rect shape-rendering="optimizeSpeed" fill="#000" x="207.75862068965517" y="478.1034482758621"  width="16.996551724137934" height="16.996551724137934"></rect><rect shape-rendering="optimizeSpeed" fill="#000" x="258.44827586206895" y="478.1034482758621"  width="16.996551724137934" height="16.996551724137934"></rect><rect shape-rendering="optimizeSpeed" fill="#000" x="292.2413793103448" y="478.1034482758621"  width="16.996551724137934" height="16.996551724137934"></rect><rect shape-rendering="optimizeSpeed" fill="#000" x="326.0344827586207" y="478.1034482758621"  width="16.996551724137934" height="16.996551724137934"></rect><rect shape-rendering="optimizeSpeed" fill="#000" x="342.93103448275866" y="478.1034482758621"  width="16.996551724137934" height="16.996551724137934"></rect><rect shape-rendering="optimizeSpeed" fill="#000" x="359.82758620689657" y="478.1034482758621"  width="16.996551724137934" height="16.996551724137934"></rect><rect shape-rendering="optimizeSpeed" fill="#000" x="376.72413793103453" y="478.1034482758621"  width="16.996551724137934" height="16.996551724137934"></rect><rect shape-rendering="optimizeSpeed" fill="#000" x="410.51724137931035" y="478.1034482758621"  width="16.996551724137934" height="16.996551724137934"></rect><rect shape-rendering="optimizeSpeed" fill="#000" x="427.4137931034483" y="478.1034482758621"  width="16.996551724137934" height="16.996551724137934"></rect><rect shape-rendering="optimizeSpeed" fill="#000" x="444.3103448275862" y="478.1034482758621"  width="16.996551724137934" height="16.996551724137934"></rect></svg>